<svg xmlns="http://www.w3.org/2000/svg" width="106.392" height="95.753" viewBox="0 0 106.392 95.753">
  <g id="Group_1527" data-name="Group 1527" transform="translate(-498.975 -46.011)">
    <path id="Path_25419" data-name="Path 25419" d="M572.179,66.976l.723-1.1a6.667,6.667,0,0,0-1.89-9.228l-4.259-2.8a6.667,6.667,0,0,0-9.231,1.89l-1.145,1.752h0l-.011.014-.678,1.032-.2.3h-.007L554.06,61h0L538.52,84.545h0L537.1,86.7l-.965,1.461-.043.064-.021.032c-.018.043-.05.089-.068.135l-.007.028-.043.117-.018.046-.021.113-.007.028-1.9,15.9H503.159a1.554,1.554,0,0,0,0,3.107h31.857c.042,0,.078-.021.121-.025a1.406,1.406,0,0,0,.273,0,1.626,1.626,0,0,0,.4-.149l15.274-8.831.021-.018a.585.585,0,0,0,.106-.078l.025-.018c.032-.035.082-.071.113-.106l20.824-31.527Zm-35.411,36.939,1.539-12.721,9.565,6.309Zm14.179-9.55-.9,1.376-10.948-7.224.872-1.323L557.1,61.216c.1.018.2.039.3.057l10.714,7.068Zm19.743-29.939-1.082,1.656-.018.025-10.1-6.664-.848-.56,1.11-1.681a4,4,0,0,1,5.536-1.135l4.277,2.823A4.008,4.008,0,0,1,570.689,64.426Z" transform="translate(6.789 17.159)" fill="#eb9431"/>
    <path id="Path_25420" data-name="Path 25420" d="M508.762,72.547a2.289,2.289,0,0,1-2.372-2.192,2.382,2.382,0,0,0-4.749,0A6.541,6.541,0,0,0,505.5,76.2V77.48a2.38,2.38,0,0,0,4.745,0v-.7a6.731,6.731,0,0,0,5.639-6.43v-.887a6.625,6.625,0,0,0-5-6.277l-2.833-.819a2.206,2.206,0,0,1-1.663-2.092v-.887a2.38,2.38,0,0,1,4.745,0,2.382,2.382,0,0,0,4.749,0,6.647,6.647,0,0,0-4.749-6.2v-.926a2.38,2.38,0,0,0-4.745,0v.926a6.651,6.651,0,0,0-4.749,6.2v.887a6.626,6.626,0,0,0,5,6.277l2.834.819a2.206,2.206,0,0,1,1.663,2.092v.887A2.289,2.289,0,0,1,508.762,72.547Z" transform="translate(6.789 10.354)" fill="#eb9431"/>
    <path id="Path_25421" data-name="Path 25421" d="M502.932,67.475H530.1a1.58,1.58,0,0,0,0-3.107H502.932a1.58,1.58,0,0,0,0,3.107Z" transform="translate(6.789 46.744)" fill="#eb9431"/>
    <path id="Path_25422" data-name="Path 25422" d="M502.794,64.312h24.7a1.169,1.169,0,0,0,1.156-1.184V62.39a1.169,1.169,0,0,0-1.156-1.185h-24.7a1.167,1.167,0,0,0-1.153,1.185v.738A1.167,1.167,0,0,0,502.794,64.312Z" transform="translate(6.789 38.69)" fill="#eb9431"/>
    <path id="Path_25423" data-name="Path 25423" d="M600.242,83.486l-7.327-.954a36.919,36.919,0,0,0-2.216-5.483l4.525-5.965a6.04,6.04,0,0,0-.475-7.894l-6.135-6.284a5.71,5.71,0,0,0-7.735-.507l-5.82,4.632a36.4,36.4,0,0,0-5.355-2.27l-.933-7.483a5.884,5.884,0,0,0-5.788-5.266h-8.728a5.662,5.662,0,0,0-3.479,1.263H505.043a6.151,6.151,0,0,0-6.068,6.217v76.134A10.76,10.76,0,0,0,509.6,140.5h41.181a5.665,5.665,0,0,0,3.479,1.266h8.728a5.674,5.674,0,0,0,3.482-1.266,8.268,8.268,0,0,0,2.309-3.99l.933-7.5a35.4,35.4,0,0,0,5.352-2.27l.528.418,3.036,2.415,2.259,1.8a5.691,5.691,0,0,0,7.71-.486l6.135-6.284a6.047,6.047,0,0,0,.5-7.919l-4.525-5.961a37.952,37.952,0,0,0,2.216-5.483l7.309-.95a5.932,5.932,0,0,0,5.142-5.93V89.419A5.933,5.933,0,0,0,600.242,83.486Zm1.231,14.87a2.008,2.008,0,0,1-1.731,1.975l-8.572,1.117a1.96,1.96,0,0,0-1.624,1.426,33.814,33.814,0,0,1-2.865,7.079,2.031,2.031,0,0,0,.163,2.2l5.3,6.983a2.007,2.007,0,0,1-.152,2.631l-6.174,6.323a1.883,1.883,0,0,1-2.55.138l-4.642-3.7-2.177-1.734a1.9,1.9,0,0,0-.858-.34,1.86,1.86,0,0,0-1.284.174,32.063,32.063,0,0,1-6.912,2.936A1.988,1.988,0,0,0,566,127.227l-1.092,8.8a1.927,1.927,0,0,1-.181.578,1.948,1.948,0,0,1-1.741,1.174h-8.728a1.843,1.843,0,0,1-1.075-.383,1.989,1.989,0,0,1-.848-1.39l-1.092-8.777a1.978,1.978,0,0,0-1.394-1.663c-.794-.234-1.092.089-1.763.567-.858.61-.553,2.88-.553,2.88l.007,0,.929,7.486a5.919,5.919,0,0,0,.273.894H509.6a7.687,7.687,0,0,1-7.586-7.767V53.49a3.075,3.075,0,0,1,3.032-3.11h43.7a6.346,6.346,0,0,0-.269.883l-.564,4.561a18.541,18.541,0,0,0,.078,5.206c.16.557,1.032,1.426,1.866,1.181a1.983,1.983,0,0,0,1.394-1.667l1.1-8.792a1.988,1.988,0,0,1,.841-1.372A1.876,1.876,0,0,1,554.256,50h8.728a2,2,0,0,1,1.929,1.773L566,60.551a1.987,1.987,0,0,0,1.4,1.667,31.978,31.978,0,0,1,6.908,2.936,1.91,1.91,0,0,0,2.146-.17l6.82-5.426a1.886,1.886,0,0,1,2.571.156l6.174,6.323a2,2,0,0,1,.128,2.61l-5.3,6.983a2.024,2.024,0,0,0-.163,2.2A33.794,33.794,0,0,1,589.55,84.9a1.964,1.964,0,0,0,1.628,1.429l8.582,1.121a2,2,0,0,1,1.713,1.968Z" transform="translate(0 0)" fill="#eb9431"/>
  </g>
</svg>
